<svg width="40" height="40" viewBox="0 0 40 40" fill="none" xmlns="http://www.w3.org/2000/svg">
<path d="M40 20C40 16.0444 38.827 12.1776 36.6294 8.8886C34.4318 5.59962 31.3082 3.03617 27.6537 1.52242C23.9992 0.0086658 19.9778 -0.387401 16.0982 0.384303C12.2186 1.15601 8.65492 3.06082 5.85787 5.85787C3.06082 8.65492 1.15601 12.2186 0.384303 16.0982C-0.387401 19.9778 0.00866568 23.9992 1.52242 27.6537C3.03617 31.3082 5.59962 34.4318 8.8886 36.6294C12.1776 38.827 16.0444 40 20 40H20.35V24.4333H16.05V19.4333H20.35V15.7333C20.2523 14.8556 20.349 13.9671 20.6332 13.1309C20.9175 12.2947 21.3823 11.5314 21.9948 10.8951C22.6072 10.2588 23.3523 9.76509 24.177 9.44909C25.0017 9.1331 25.8858 9.00253 26.7667 9.06668C28.0528 9.05901 29.3383 9.12579 30.6167 9.26667V13.8H28C25.9333 13.8 25.5167 14.7833 25.5167 16.2333V19.4167H30.5167L29.8667 24.4167H25.5167V39.2333C29.692 38.0352 33.3637 35.5102 35.9767 32.0402C38.5897 28.5702 40.002 24.3438 40 20Z" fill="#3B5998"/>
</svg>
