<svg width="40" height="40" viewBox="0 0 40 40" fill="none" xmlns="http://www.w3.org/2000/svg">
<path d="M20 40C23.9556 40 27.8224 38.827 31.1114 36.6294C34.4004 34.4318 36.9638 31.3082 38.4776 27.6537C39.9913 23.9992 40.3874 19.9778 39.6157 16.0982C38.844 12.2186 36.9392 8.65492 34.1421 5.85787C31.3451 3.06082 27.7814 1.15601 23.9018 0.384303C20.0222 -0.387401 16.0009 0.00866572 12.3463 1.52242C8.69181 3.03617 5.56824 5.59962 3.37061 8.8886C1.17298 12.1776 0 16.0444 0 20C0 25.3043 2.10714 30.3914 5.85786 34.1421C9.60859 37.8929 14.6957 40 20 40ZM9.15 19.5667L28.4333 12.1333C29.3333 11.8167 30.1 12.35 29.8167 13.7L26.4833 29.1667C26.25 30.2667 25.6 30.5333 24.6833 30.0167L19.6833 26.3333L17.2667 28.65C17.1502 28.8053 16.9993 28.9313 16.8257 29.018C16.6521 29.1048 16.4607 29.15 16.2667 29.15L16.6667 24.05L25.9333 15.7167C26.3333 15.3667 25.85 15.1667 25.3167 15.5167L13.8667 22.7L8.86667 21.15C7.78333 20.8167 7.76667 20.0833 9.08333 19.5667H9.15Z" fill="#0088CC"/>
</svg>
