<svg width="40" height="40" viewBox="0 0 40 40" fill="none" xmlns="http://www.w3.org/2000/svg">
<g clip-path="url(#clip0_1927_391)">
<path d="M30.3333 13.4165C29.9662 12.4408 29.3848 11.5599 28.6319 10.8388C27.8791 10.1176 26.974 9.57465 25.9833 9.24987C22.0241 8.50004 17.9592 8.50004 14 9.24987C13.0094 9.57465 12.1042 10.1176 11.3514 10.8388C10.5985 11.5599 10.0171 12.4408 9.64999 13.4165C8.95147 16.6571 8.95147 20.0093 9.64999 23.2499C10.0139 24.2274 10.5943 25.11 11.3476 25.8316C12.1009 26.5532 13.0076 27.095 14 27.4165C14.0368 27.4269 14.0695 27.4486 14.0934 27.4785C14.1173 27.5084 14.1313 27.545 14.1333 27.5832V32.3499C14.125 32.4053 14.1356 32.4619 14.1633 32.5106C14.191 32.5594 14.2343 32.5973 14.2862 32.6185C14.3381 32.6396 14.3957 32.6427 14.4495 32.6273C14.5034 32.6118 14.5505 32.5787 14.5833 32.5332L18.7833 27.9665C18.7833 27.9665 19.0667 27.9665 19.1 27.9665C21.4021 28.0334 23.7046 27.849 25.9667 27.4165C26.9536 27.1059 27.8582 26.5777 28.614 25.871C29.3697 25.1643 29.9572 24.2971 30.3333 23.3332C31.0625 20.0679 31.0625 16.6819 30.3333 13.4165ZM26.05 23.4165C25.69 24.1382 25.105 24.7232 24.3833 25.0832C24.164 25.1798 23.9349 25.2524 23.7 25.2999C23.4333 25.2999 23.1667 25.1665 22.9333 25.0665C20.467 24.1413 18.2481 22.6582 16.45 20.7332C15.4538 19.585 14.6183 18.3066 13.9667 16.9332C13.65 16.2832 13.3667 15.6165 13.1 14.9499C13.0217 14.653 13.027 14.3402 13.1152 14.0461C13.2034 13.752 13.3712 13.488 13.6 13.2832C14.0017 12.8925 14.4778 12.5864 15 12.3832C15.1837 12.2962 15.3917 12.2753 15.5891 12.3239C15.7864 12.3724 15.961 12.4876 16.0833 12.6499C16.7146 13.3647 17.2729 14.1408 17.75 14.9665C17.8986 15.2097 17.9486 15.5006 17.8897 15.7795C17.8309 16.0583 17.6676 16.3042 17.4333 16.4665C17.3094 16.5517 17.1924 16.6464 17.0833 16.7499C16.973 16.827 16.8771 16.9229 16.8 17.0332C16.7506 17.1403 16.7251 17.2569 16.7251 17.3749C16.7251 17.4928 16.7506 17.6094 16.8 17.7165C17.0668 18.5724 17.5165 19.3601 18.118 20.0248C18.7195 20.6896 19.4583 21.2157 20.2833 21.5665C20.5546 21.7125 20.8586 21.787 21.1667 21.7832C21.7167 21.7832 21.9 21.1165 22.2667 20.8165C22.449 20.6786 22.6714 20.604 22.9 20.604C23.1286 20.604 23.351 20.6786 23.5333 20.8165L24.7 21.6332C25.0859 21.8921 25.4586 22.1702 25.8167 22.4665C25.9598 22.592 26.0595 22.7596 26.1015 22.9452C26.1434 23.1309 26.1254 23.3251 26.05 23.4999V23.4165ZM22.1 14.4332C21.7207 14.2513 21.3161 14.1277 20.9 14.0665H20.35C20.3017 14.0671 20.2538 14.0571 20.2097 14.0373C20.1656 14.0175 20.1264 13.9884 20.0947 13.9519C20.063 13.9155 20.0396 13.8726 20.0261 13.8262C20.0126 13.7798 20.0094 13.731 20.0167 13.6832C20.0164 13.6343 20.0265 13.5859 20.0461 13.5411C20.0657 13.4963 20.0945 13.4561 20.1307 13.4231C20.1668 13.3902 20.2094 13.3651 20.2558 13.3496C20.3022 13.3341 20.3513 13.3285 20.4 13.3332C21.1313 13.3637 21.8476 13.5513 22.5 13.8832C23.1308 14.2051 23.6723 14.6778 24.0764 15.2593C24.4806 15.8408 24.7348 16.5131 24.8167 17.2165C24.8167 17.2165 24.8167 17.3499 24.8167 17.4165C24.827 17.6053 24.827 17.7945 24.8167 17.9832C24.8232 18.0553 24.8232 18.1278 24.8167 18.1999C24.7934 18.2745 24.7468 18.3397 24.6839 18.386C24.6209 18.4323 24.5448 18.4572 24.4667 18.4572C24.3885 18.4572 24.3124 18.4323 24.2494 18.386C24.1865 18.3397 24.1399 18.2745 24.1167 18.1999C24.1002 18.1005 24.1002 17.9992 24.1167 17.8999C24.1271 17.219 23.9605 16.5471 23.6333 15.9499C23.2875 15.3008 22.7528 14.7719 22.1 14.4332ZM23.1667 17.1999C23.1835 17.3048 23.1835 17.4116 23.1667 17.5165C23.1567 17.5837 23.1254 17.6459 23.0773 17.6939C23.0293 17.7419 22.9672 17.7732 22.9 17.7832C22.8474 17.7854 22.795 17.7773 22.7456 17.7592C22.6962 17.7412 22.6509 17.7135 22.6122 17.6779C22.5735 17.6423 22.5422 17.5994 22.5201 17.5517C22.4979 17.504 22.4855 17.4524 22.4833 17.3999C22.4925 17.2278 22.4925 17.0553 22.4833 16.8832C22.4129 16.5498 22.2233 16.2535 21.95 16.0499C21.8181 15.9549 21.6718 15.8817 21.5167 15.8332C21.3167 15.8332 21.1167 15.8332 20.9167 15.7499C20.8681 15.7419 20.8217 15.7242 20.7802 15.6979C20.7386 15.6716 20.7028 15.6372 20.6748 15.5968C20.6468 15.5564 20.6272 15.5107 20.6173 15.4626C20.6073 15.4144 20.6071 15.3648 20.6167 15.3165C20.6285 15.2395 20.6636 15.1679 20.7172 15.1114C20.7708 15.0548 20.8404 15.0159 20.9167 14.9999C21.2103 14.9909 21.5028 15.0413 21.7766 15.148C22.0503 15.2548 22.2997 15.4157 22.5098 15.6211C22.7199 15.8265 22.8863 16.0722 22.9992 16.3435C23.1121 16.6148 23.169 16.906 23.1667 17.1999ZM26.2167 19.0165C25.9667 19.0165 25.85 18.8165 25.8333 18.5832C25.8167 18.3499 25.8333 17.6665 25.7 17.2165C25.5286 16.0388 24.9928 14.9442 24.1679 14.0864C23.3429 13.2286 22.2701 12.6505 21.1 12.4332C20.7333 12.4332 20.3667 12.4332 20.0167 12.3165C19.6667 12.1999 19.4833 12.3165 19.4333 11.9832C19.4231 11.9284 19.4255 11.8719 19.4403 11.8181C19.4552 11.7643 19.4821 11.7147 19.5191 11.6729C19.5561 11.6311 19.6021 11.5983 19.6537 11.577C19.7052 11.5556 19.761 11.5464 19.8167 11.5499H20C21.5268 11.5546 23.0033 12.0966 24.1704 13.0809C25.3376 14.0653 26.121 15.4291 26.3833 16.9332C26.4833 17.4665 26.5167 18.0165 26.5667 18.5999C26.5712 18.6502 26.5658 18.701 26.5506 18.7493C26.5355 18.7976 26.5109 18.8423 26.4784 18.8811C26.4459 18.9198 26.406 18.9517 26.3611 18.975C26.3161 18.9982 26.2671 19.0123 26.2167 19.0165Z" fill="#665CAC"/>
<path d="M20 0C16.0444 0 12.1776 1.17298 8.8886 3.37061C5.59962 5.56824 3.03617 8.69181 1.52242 12.3463C0.00866572 16.0009 -0.387401 20.0222 0.384303 23.9018C1.15601 27.7814 3.06082 31.3451 5.85787 34.1421C8.65492 36.9392 12.2186 38.844 16.0982 39.6157C19.9778 40.3874 23.9992 39.9913 27.6537 38.4776C31.3082 36.9638 34.4318 34.4004 36.6294 31.1114C38.827 27.8224 40 23.9556 40 20C40 14.6957 37.8929 9.60859 34.1421 5.85786C30.3914 2.10714 25.3043 0 20 0V0ZM32.65 23.7667C32.3688 24.7764 31.8743 25.7142 31.2 26.5167C30.0177 28.0644 28.361 29.1825 26.4833 29.7C24.3564 30.0978 22.1972 30.2987 20.0333 30.3C19.4 30.3 19.1333 30.3 18.5 30.3L15.2167 33.9333C15.0199 34.1174 14.7731 34.2393 14.5073 34.2835C14.2415 34.3278 13.9686 34.2925 13.7228 34.1821C13.477 34.0716 13.2693 33.891 13.1259 33.6629C12.9825 33.4348 12.9097 33.1694 12.9167 32.9L12.7667 29.5667C11.1696 29.0288 9.7858 27.9954 8.81668 26.6167C8.13429 25.8108 7.634 24.8671 7.35001 23.85C6.54998 20.272 6.54998 16.5614 7.35001 12.9833C7.81774 11.5673 8.62387 10.2868 9.69847 9.2529C10.7731 8.21895 12.0837 7.46279 13.5167 7.05C17.7779 6.23331 22.1555 6.23331 26.4167 7.05C27.851 7.46018 29.1629 8.21543 30.2379 9.24974C31.3129 10.2841 32.1182 11.5659 32.5833 12.9833C33.3766 16.5316 33.3993 20.2088 32.65 23.7667Z" fill="#665CAC"/>
</g>
<defs>
<clipPath id="clip0_1927_391">
<rect width="40" height="40" fill="white"/>
</clipPath>
</defs>
</svg>
