<svg width="40" height="40" viewBox="0 0 40 40" fill="none" xmlns="http://www.w3.org/2000/svg">
<path d="M19.9999 7.64678e-05C16.3246 0.00827641 12.7226 1.02907 9.58946 2.95037C6.4563 4.87167 3.91315 7.61918 2.23925 10.8912C0.565347 14.1632 -0.174563 17.8332 0.100758 21.4982C0.37608 25.1632 1.65599 28.6815 3.79994 31.6667L1.31661 39.1501L8.99994 36.6667C11.6021 38.3928 14.5722 39.4855 17.6724 39.8575C20.7727 40.2296 23.917 39.8705 26.8536 38.8091C29.7902 37.7477 32.4375 36.0134 34.5835 33.7452C36.7294 31.477 38.3145 28.7378 39.2118 25.747C40.109 22.7561 40.2935 19.5968 39.7505 16.5218C39.2074 13.4469 37.952 10.5418 36.0846 8.03922C34.2172 5.53662 31.7898 3.50603 28.9967 2.11004C26.2036 0.714051 23.1224 -0.00855741 19.9999 7.64678e-05ZM31.6666 28.3334C31.2586 29.0634 30.6945 29.6943 30.0146 30.1812C29.3347 30.668 28.5557 30.9989 27.7333 31.1501C26.6833 31.3667 25.3166 31.5501 20.7333 29.6501C14.8499 27.2167 11.0666 21.3167 10.7333 20.8501C9.35202 19.0899 8.51755 16.9632 8.33327 14.7334C8.31209 13.8188 8.48876 12.9105 8.85121 12.0705C9.21367 11.2305 9.75333 10.4788 10.4333 9.86674C10.7085 9.61962 11.0298 9.42913 11.3787 9.30617C11.7275 9.1832 12.0972 9.13016 12.4666 9.15007H13.1333C13.7333 9.15007 14.0166 9.15007 14.4166 10.1334C14.8999 11.3001 16.0833 14.1667 16.1999 14.4667C16.3034 14.6256 16.3665 14.8073 16.3839 14.996C16.4014 15.1848 16.3725 15.375 16.2999 15.5501C16.1279 15.8849 15.909 16.1936 15.6499 16.4667C15.3499 16.8167 15.0666 17.0667 14.7666 17.4334C14.5801 17.5761 14.4531 17.7828 14.41 18.0136C14.3669 18.2444 14.4108 18.4831 14.5333 18.6834C15.4216 20.174 16.5157 21.5318 17.7833 22.7167C19.1503 23.9623 20.7389 24.9404 22.4666 25.6001C22.6975 25.709 22.9556 25.7465 23.208 25.7079C23.4604 25.6693 23.6955 25.5563 23.8833 25.3834C24.4401 24.7273 24.963 24.043 25.4499 23.3334C25.5927 23.0965 25.8184 22.9209 26.0832 22.8409C26.348 22.7608 26.6331 22.7819 26.8833 22.9001C27.4166 23.0834 30.2166 24.5667 30.8666 24.7834C31.5166 25.0001 31.8499 25.2167 31.9833 25.4667C32.1698 26.4323 32.0594 27.4318 31.6666 28.3334Z" fill="#43D854"/>
</svg>
