<svg width="80" height="80" viewBox="0 0 80 80" fill="none" xmlns="http://www.w3.org/2000/svg">
<path d="M66.375 62.75H13.625C13.125 62.75 12.75 62.375 12.75 61.875C12.75 61.375 13.125 61 13.625 61H65.5V34.875C65.375 33.5 64.25 32.375 62.875 32.5H53.5C53 32.5 52.625 32.125 52.625 31.625C52.625 31.125 53 30.75 53.5 30.75H62.875C65.25 30.75 67.25 32.5 67.375 34.875C67.375 35 67.375 35.125 67.375 35.125V62C67.375 62.375 66.875 62.75 66.375 62.75Z" fill="#FDA5BD"/>
<path d="M13.625 62.75C13.125 62.75 12.75 62.375 12.75 61.875V35C12.75 35 12.75 34.875 12.75 34.75C12.875 32.375 14.875 30.625 17.25 30.625H26.625C27.125 30.625 27.5 31 27.5 31.5C27.5 32 27.125 32.375 26.625 32.375H17.25C15.875 32.375 14.625 33.375 14.625 34.75V61.75C14.5 62.375 14.125 62.75 13.625 62.75Z" fill="#FDA5BD"/>
<path d="M53.125 62.75C52.625 62.75 52.25 62.375 52.25 61.875V21V20.875C52.375 20.25 52.125 19.625 51.625 19.125C51.25 18.625 50.625 18.375 50 18.375H48.375C47.875 18.375 47.5 18 47.5 17.5C47.5 17 47.875 16.625 48.375 16.625H50C51.125 16.625 52.25 17.125 53 18C53.75 18.875 54.125 19.875 54 21V21.125V61.875C54 62.375 53.625 62.75 53.125 62.75Z" fill="#FDA5BD"/>
<path d="M27 62.75C26.5 62.75 26.125 62.375 26.125 61.875V21.125V21C26 19.875 26.375 18.75 27.25 17.875C28 17 29.125 16.5 30.25 16.5H32.625C33.125 16.5 33.5 16.875 33.5 17.375C33.5 17.875 33.125 18.25 32.625 18.25H30.125C29.5 18.25 28.875 18.5 28.5 19C28.125 19.375 27.875 20 27.875 20.625V20.75V20.875V61.625C27.875 62.375 27.5 62.75 27 62.75Z" fill="#FDA5BD"/>
<path d="M47.875 24.75H32.5C32 24.75 31.625 24.375 31.625 23.875V11.5C31.625 11 32 10.625 32.5 10.625H47.75C48.25 10.625 48.625 11 48.625 11.5V23.75C48.75 24.375 48.375 24.75 47.875 24.75ZM33.5 22.875H47V12.5H33.5V22.875Z" fill="#FDA5BD"/>
<path d="M46.125 62.75C45.625 62.75 45.25 62.375 45.25 61.875V49.625H35V61.375C35 61.875 34.625 62.25 34.125 62.25C33.625 62.25 33.25 61.875 33.25 61.375V48.75C33.25 48.25 33.625 47.875 34.125 47.875H46.25C46.75 47.875 47.125 48.25 47.125 48.75V61.875C47 62.375 46.625 62.75 46.125 62.75Z" fill="#FDA5BD"/>
<path d="M40.125 62.75C39.625 62.75 39.25 62.375 39.25 61.875V48.75C39.25 48.25 39.625 47.875 40.125 47.875C40.625 47.875 41 48.25 41 48.75V61.875C41.125 62.375 40.75 62.75 40.125 62.75Z" fill="#FDA5BD"/>
<path d="M40 21.25C39.5 21.25 39.125 20.875 39.125 20.375V15.25C39.125 14.75 39.5 14.375 40 14.375C40.5 14.375 40.875 14.75 40.875 15.25V20.375C40.875 20.75 40.5 21.25 40 21.25Z" fill="#FDA5BD"/>
<path d="M42.75 18.5H37.25C36.75 18.5 36.375 18.125 36.375 17.625C36.375 17.125 36.75 16.75 37.25 16.75H42.75C43.25 16.75 43.625 17.125 43.625 17.625C43.625 18.125 43.25 18.5 42.75 18.5Z" fill="#FDA5BD"/>
<path d="M22.875 52.5H17.25C16.875 52.5 16.5 52.25 16.5 51.75V46.625C16.5 46.25 16.75 45.875 17.125 45.875H22.75C23.125 45.875 23.375 46.125 23.5 46.625V51.75C23.5 52.25 23.25 52.5 22.875 52.5ZM17.875 51.125H22.125V47.375H17.875V51.125Z" fill="#FDA5BD"/>
<path d="M22.75 43H17.125C16.75 43 16.5 42.75 16.375 42.375V37.25C16.375 36.875 16.625 36.625 17.125 36.5H22.75C23.125 36.5 23.5 36.75 23.5 37.25V42.375C23.375 42.625 23.125 43 22.75 43ZM17.875 41.625H22.125V37.875H17.875V41.625Z" fill="#FDA5BD"/>
<path d="M38.125 44.375H32.5C32.125 44.375 31.875 44.125 31.75 43.625V38.5C31.75 38.125 32 37.875 32.5 37.75H38.125C38.5 37.75 38.75 38 38.875 38.5V43.75C38.75 44.125 38.5 44.375 38.125 44.375ZM33.125 43H37.375V39.25H33.125V43Z" fill="#FDA5BD"/>
<path d="M38.125 35.5H32.5C32.125 35.5 31.75 35.25 31.75 34.75V29.625C31.75 29.25 32 28.875 32.5 28.875H38.125C38.5 28.875 38.875 29.125 38.875 29.625V34.75C38.75 35.25 38.5 35.5 38.125 35.5ZM33.125 34.125H37.375V30.375H33.125V34.125Z" fill="#FDA5BD"/>
<path d="M47.5 44.375H41.875C41.5 44.375 41.25 44.125 41.125 43.625V38.5C41.125 38.125 41.375 37.875 41.875 37.75H47.5C47.875 37.75 48.125 38 48.25 38.5V43.75C48.25 44.125 48 44.375 47.5 44.375ZM42.625 43H46.875V39.25H42.625V43Z" fill="#FDA5BD"/>
<path d="M47.5 35.5H41.875C41.5 35.5 41.125 35.25 41.125 34.75V29.625C41.125 29.25 41.375 28.875 41.875 28.875H47.5C47.875 28.875 48.25 29.125 48.25 29.625V34.75C48.25 35.25 48 35.5 47.5 35.5ZM42.625 34.125H46.875V30.375H42.625V34.125Z" fill="#FDA5BD"/>
<path d="M62.875 52.5H57.25C56.875 52.5 56.625 52.25 56.5 51.75V46.625C56.5 46.25 56.75 46 57.25 45.875H62.875C63.25 45.875 63.625 46.125 63.625 46.625V51.75C63.625 52.25 63.25 52.5 62.875 52.5ZM58 51.125H62.25V47.375H58V51.125Z" fill="#FDA5BD"/>
<path d="M62.875 43H57.25C56.875 43 56.625 42.75 56.625 42.375V37.25C56.625 36.875 56.875 36.5 57.375 36.5H63C63.375 36.5 63.625 36.75 63.75 37.25V42.375C63.5 42.625 63.25 43 62.875 43ZM57.875 41.625H62.125V37.875H57.875V41.625Z" fill="#FDA5BD"/>
<path d="M40.125 79.125C33.75 79.125 27.5 77.625 21.875 74.5L19.625 73.25C1.75003 62.125 -3.74997 38.375 7.50003 20.5C18.75 2.62503 42.375 -2.87497 60.375 8.37503C78.375 19.625 83.75 43.25 72.5 61.125C65.5 72.25 53.25 79.125 40.125 79.125ZM40.125 5.00003C20.375 5.00003 4.25003 21 4.25003 40.75C4.25003 53 10.5 64.5 20.875 71L23 72.25C40.375 81.625 62.125 75.25 71.625 57.75C81.125 40.25 74.625 18.75 57.25 9.25003C52 6.50003 46.125 5.00003 40.125 5.00003Z" fill="#FDA5BD"/>
</svg>
