<svg width="80" height="80" viewBox="0 0 80 80" fill="none" xmlns="http://www.w3.org/2000/svg">
<path d="M40.75 64.375C26.875 64.375 15.75 53.125 15.75 39.375C15.75 25.5 27 14.375 40.75 14.375C54.5 14.375 65.75 25.625 65.75 39.375C65.75 53.125 54.5 64.375 40.75 64.375ZM40.75 16.5C28.125 16.5 17.875 26.75 17.875 39.375C17.875 52 28.125 62.25 40.75 62.25C53.375 62.25 63.625 52 63.625 39.375C63.625 26.75 53.375 16.5 40.75 16.5Z" fill="#FDA5BD"/>
<path d="M40.75 64.375C40.5 64.375 40.25 64.25 40 64.125C33.125 57.375 29.25 48.125 29.125 38.5C29.125 37.875 29.625 37.375 30.25 37.375C30.875 37.375 31.375 37.875 31.375 38.5C31.5 47.5 35.125 56.25 41.5 62.625C41.875 63 42 63.75 41.625 64.125C41.25 64.25 41 64.375 40.75 64.375Z" fill="#FDA5BD"/>
<path d="M30.25 39.375C29.625 39.375 29.125 38.875 29.125 38.25C29.5 21.5 39 14.75 39.375 14.5C39.875 14.125 40.5 14.25 40.875 14.75C41.25 15.25 41.125 15.875 40.625 16.25C40.625 16.25 40.625 16.25 40.5 16.375C40.375 16.5 31.5 22.875 31.125 38.5C31.25 39 30.75 39.375 30.25 39.375Z" fill="#FDA5BD"/>
<path d="M40.75 64.375C40.125 64.375 39.625 63.875 39.625 63.25C39.625 63 39.75 62.625 40 62.5C46.375 56 50 47.375 50.125 38.375C50.125 37.75 50.625 37.25 51.25 37.25C51.875 37.25 52.375 37.75 52.375 38.375C52.25 48 48.375 57.25 41.5 64.125C41.25 64.25 41 64.375 40.75 64.375Z" fill="#FDA5BD"/>
<path d="M51.25 39.375C50.625 39.375 50.125 38.875 50.125 38.25C49.75 22.75 40.875 16.25 40.75 16.25C40.25 15.875 40.125 15.25 40.5 14.75C40.875 14.25 41.5 14.125 42 14.5C42.375 14.75 51.875 21.5 52.25 38.25C52.25 38.875 51.75 39.375 51.25 39.375Z" fill="#FDA5BD"/>
<path d="M40.5 29.5H40C26.75 29.375 22 24.75 21.875 24.625C21.375 24.25 21.375 23.625 21.75 23.125C22.125 22.625 22.75 22.625 23.25 23L23.375 23.125C23.5 23.25 27.875 27.25 40.125 27.375C52.75 27.5 58.25 23 58.25 22.875C58.75 22.5 59.375 22.5 59.75 23C60.125 23.5 60.125 24.125 59.625 24.5C59.25 24.75 53.375 29.5 40.5 29.5Z" fill="#FDA5BD"/>
<path d="M59.25 55.375C59 55.375 58.75 55.25 58.625 55.125C58.625 55.125 52.875 50.625 40.5 50.625C28.125 50.625 23.75 54.875 23.625 54.875C23.25 55.25 22.5 55.25 22.125 54.875C21.75 54.5 21.75 53.75 22.125 53.375C22.375 53.125 27 48.625 40.25 48.5C53.5 48.375 59.625 53.25 59.875 53.5C60.375 53.875 60.375 54.5 60 55C59.875 55.125 59.625 55.375 59.25 55.375Z" fill="#FDA5BD"/>
<path d="M64.625 39.375H16.75C16.125 39.375 15.625 38.875 15.625 38.25C15.625 37.625 16.125 37.125 16.75 37.125H64.625C65.25 37.125 65.75 37.625 65.75 38.25C65.75 38.875 65.25 39.375 64.625 39.375Z" fill="#FDA5BD"/>
<path d="M67.5 55.375L46.25 40.25C46 40 45.75 40 45.5 40C45 40.125 44.625 40.625 44.625 41.125L48.125 67.25C48.125 67.625 48.5 68 49 68.125H49.25C49.625 68.125 50 67.875 50.125 67.625L54.625 59.625L61.25 69.375C61.625 69.875 62.25 70.25 63 70.25C63.375 70.25 63.75 70.125 64.125 69.875C65 69.25 65.25 68 64.625 67L58.125 57.5L66.875 57.125C67.125 57.125 67.5 57 67.625 56.75C68 56.375 67.875 55.75 67.5 55.375Z" fill="#FDA5BD"/>
<path d="M40.75 78C34.5 78 28.25 76.5 22.625 73.5L20.375 72.25C2.75001 61 -2.62499 37.625 8.62501 19.875C19.875 2.12504 43.125 -3.24995 60.875 8.00005C78.625 19.25 84 42.625 72.75 60.375C65.875 71.25 53.75 78 40.75 78ZM40.75 4.62505C21.125 4.62505 5.25001 20.375 5.25001 40C5.25001 40 5.25001 40 5.25001 40.125C5.25001 52.25 11.5 63.625 21.75 70.125L23.875 71.375C41.125 80.625 62.625 74.125 71.875 56.875C81.125 39.625 74.625 18.125 57.375 8.87505C54.375 7.25005 51.125 6.12505 47.75 5.37505C45.5 4.87505 43.125 4.62505 40.75 4.62505Z" fill="#FDA5BD"/>
</svg>
