<svg width="80" height="80" viewBox="0 0 80 80" fill="none" xmlns="http://www.w3.org/2000/svg">
<path d="M43.5 51.625C43.75 54.5 40.25 55.125 40.25 55.125H36.375L38 61.375H19.5L21.25 55.25L17 55C16.75 55 16.375 55 16.125 54.875C15.125 54.625 13.25 53.75 13.375 51.5C13.625 48.625 13.375 28.25 13.375 28.25C13.875 26.75 15.125 25.625 16.75 25.375H40.25C41.75 25.625 43 26.75 43.375 28.25C43.5 28.375 43.25 48.75 43.5 51.625Z" stroke="#FDA5BD" stroke-width="1.5" stroke-linecap="round" stroke-linejoin="round"/>
<path d="M40 78.375C33.625 78.375 27.375 76.875 21.75 73.75L19.5 72.5C1.62497 61.25 -3.87503 37.625 7.37497 19.625C18.625 1.62495 42.25 -3.75005 60.125 7.49995C78 18.75 83.5 42.375 72.25 60.375C65.375 71.4999 53.125 78.25 40 78.375ZM40 4.12495C20.25 4.12495 4.12497 20.125 4.12497 40C4.12497 52.25 10.375 63.75 20.75 70.25L22.875 71.5C40.25 80.875 62 74.4999 71.5 57C81 39.5 74.5 17.875 57 8.37495C51.875 5.62495 46 4.12495 40 4.12495Z" fill="#FDA5BD"/>
<path d="M22.5 44.375C22 44.375 21.5 44 21.5 43.5C21.5 43.25 21.625 43 21.875 42.75L31.875 33.75C32.25 33.375 32.875 33.5 33.25 33.875C33.625 34.25 33.5 34.875 33.125 35.125L23.125 44.125C23 44.25 22.75 44.375 22.5 44.375Z" fill="#FDA5BD"/>
<path d="M27.875 45.75C27.375 45.75 26.875 45.375 26.875 44.875C26.875 44.625 27 44.375 27.25 44.125L32.625 39.375C33 39 33.625 39.125 34 39.5C34.375 39.875 34.25 40.5 33.875 40.875L28.5 45.625C28.375 45.75 28.125 45.75 27.875 45.75Z" fill="#FDA5BD"/>
<path d="M51.625 67.5H27.875C27.375 67.5 26.875 67.125 26.875 66.5C26.875 65.875 27.25 65.5 27.875 65.5H51.375C52.375 64.875 56.625 61.625 54.75 54.375C54.625 53.875 54.875 53.375 55.375 53.25C55.875 53.125 56.375 53.375 56.5 53.875C58.875 63.375 52.125 67.25 52 67.25C51.875 67.5 51.75 67.5 51.625 67.5Z" fill="#FDA5BD"/>
<path d="M59 40.625H52.25C52 40.625 51.75 40.5 51.5 40.25C49.375 37.5 51.375 34.125 51.5 34C51.625 33.75 52 33.5 52.25 33.5H59C59.25 33.5 59.625 33.625 59.75 33.875C61.875 36.625 59.875 40 59.75 40.125C59.625 40.375 59.25 40.625 59 40.625ZM52.75 38.75H58.375C58.875 37.75 59 36.5 58.5 35.375H52.875C52.25 36.5 52.25 37.625 52.75 38.75Z" fill="#FDA5BD"/>
<path d="M59.875 32.125C59.75 32.125 59.5 32.125 59.375 32C55.875 30 51.875 32 51.75 32C51.25 32.25 50.75 32 50.5 31.625C50.25 31.25 50.5 30.625 50.875 30.375C51.125 30.25 55.875 27.875 60.25 30.375C60.75 30.625 60.875 31.125 60.625 31.625C60.5 31.875 60.25 32.125 59.875 32.125Z" fill="#FDA5BD"/>
<path d="M61.125 28.25C61 28.25 60.75 28.25 60.625 28.125C55.875 25.125 50.375 28.125 50.375 28.125C49.875 28.375 49.375 28.25 49.125 27.75C48.875 27.25 49 26.75 49.5 26.5C49.75 26.375 55.875 23 61.625 26.5C62 26.75 62.25 27.375 61.875 27.75C61.875 28 61.5 28.25 61.125 28.25Z" fill="#FDA5BD"/>
<path d="M63.25 24C63.125 24 62.875 24 62.75 23.875C55.75 19.5 48.75 23.75 48.5 23.875C48 24.125 47.5 24 47.25 23.625C47 23.25 47.125 22.625 47.5 22.375C47.875 22.125 55.75 17.375 63.75 22.375C64.125 22.625 64.25 23.25 64 23.625C63.875 23.75 63.625 24 63.25 24Z" fill="#FDA5BD"/>
<path d="M55.625 55.125H55.375C54.5 54.875 53.75 54.25 53.375 53.5C52.75 52.125 52.75 50.625 53.375 49.25C53.5 48.875 53.875 48.625 54.25 48.625H57C57.375 48.625 57.75 48.875 57.875 49.25C58.5 50.625 58.5 52.125 57.875 53.5C57.5 54.375 56.75 54.875 55.75 55.125H55.625ZM55 50.5C54.75 51.125 54.75 51.875 55 52.625C55.125 52.875 55.375 53.125 55.625 53.25C55.875 53.125 56.125 52.875 56.25 52.625C56.5 52 56.5 51.25 56.25 50.5H55Z" fill="#FDA5BD"/>
<path d="M57.875 50.5H57C56.5 50.5 56.125 50.125 56 49.5C56 49 56.375 48.625 56.875 48.5V39.5C56.875 39 57.25 38.5 57.875 38.5C58.5 38.5 58.875 38.875 58.875 39.5V49.375C58.875 50.125 58.375 50.5 57.875 50.5Z" fill="#FDA5BD"/>
<path d="M54.25 50.5H53.375C52.875 50.5 52.375 50.125 52.375 49.5V39.625C52.375 39.125 52.75 38.625 53.375 38.625C54 38.625 54.375 39 54.375 39.625V48.625C54.875 48.625 55.375 49 55.375 49.625C55.375 50.25 54.875 50.5 54.25 50.5Z" fill="#FDA5BD"/>
<path d="M35.75 56H19.125C17.875 56 16.875 55.625 16.875 55C16.875 54.375 17.875 54 19.125 54H35.75C37 54 38 54.375 38 55C38 55.625 37 56 35.75 56Z" fill="#FDA5BD"/>
<path d="M27.875 67.5C27.375 67.5 27 67.125 26.875 66.625V61.5C26.875 61 27.25 60.625 27.875 60.625C28.5 60.625 28.875 61 28.875 61.5V66.625C28.875 67.125 28.375 67.5 27.875 67.5Z" fill="#FDA5BD"/>
</svg>
