<svg width="80" height="80" viewBox="0 0 80 80" fill="none" xmlns="http://www.w3.org/2000/svg">
<path d="M40 78.25C33.75 78.25 27.5 76.7501 21.875 73.7501L19.625 72.5001C2.00001 61.25 -3.37499 37.875 7.87501 20.125C19.125 2.37505 42.375 -2.99996 60.125 8.25005C77.875 19.5 83.25 42.875 72 60.625C65.125 71.5001 53 78.25 40 78.25ZM40 4.87505C20.375 4.87505 4.50001 20.625 4.50001 40.25C4.50001 40.25 4.50001 40.25 4.50001 40.375C4.50001 52.5 10.75 63.875 21 70.375L23.125 71.625C40.375 80.8751 61.875 74.3751 71.125 57.125C80.375 39.875 73.875 18.375 56.625 9.12505C53.625 7.50005 50.375 6.37505 47 5.62505C44.75 5.12505 42.375 4.87505 40 4.87505Z" fill="#FDA5BD"/>
<path d="M53 43.625C52.375 43.625 51.75 43.125 51.75 42.5L50 13.875C50 13.875 49.5 8.5 46.375 5.25C45.875 4.75 45.875 4 46.375 3.5C46.875 3 47.625 3 48.125 3.5C51.875 7.5 52.5 13.5 52.5 13.75L54.125 42.25C54.25 42.875 53.75 43.5 53 43.625Z" fill="#FDA5BD"/>
<path d="M24.25 20.375C23.5 20.375 23 19.875 23 19.125C22.875 16.875 22.75 9.87497 27 5.24997C27.375 4.74997 28.5 3.99997 29 4.49997C29.5 4.87497 29.625 5.74997 29.125 6.24997L29 6.37497C25.375 10.25 25.375 17 25.5 19C25.5 19.75 25 20.25 24.25 20.375Z" fill="#FDA5BD"/>
<path d="M24.25 44.125C23.5 44.125 23 43.625 23 42.875V19.625C23 18.875 23.5 18.375 24.25 18.375C25 18.375 25.5 18.875 25.5 19.625V42.875C25.5 43.5 25 44.125 24.25 44.125Z" fill="#FDA5BD"/>
<path d="M51.5 20.875C51.375 20.875 51.125 20.875 51 20.75C47 19.125 44.125 15.25 42.75 12.875C36.25 21.25 24.75 20.375 24.125 20.375C23.375 20.375 22.875 19.75 23 19C23.125 18.25 23.625 17.75 24.375 17.875C24.5 17.875 36.375 18.75 41.875 10C42.125 9.625 42.5 9.375 43 9.375C43.5 9.375 43.875 9.625 44 10.125C44 10.25 47.125 16.5 52 18.5C52.625 18.75 53 19.5 52.625 20.125C52.5 20.625 52 21 51.5 20.875Z" fill="#FDA5BD"/>
<path d="M10.75 63.875H10.5C9.875 63.75 9.375 63.125 9.5 62.375C9.5 62.375 9.625 61.625 10.875 54C11.375 50.625 13.125 47.5 15.625 45.25C17.75 43.875 20.125 42.875 22.625 42.5C25.375 42.375 28.125 41.375 30.375 39.75C31.875 38.375 32.75 36.5 32.75 34.625C32.75 33.5 32.375 32.375 31.5 31.625C27.25 28.125 26.125 19.75 26.125 19.5C26 18.75 26.5 18.125 27.25 18.125C28 18.125 28.625 18.5 28.625 19.25C28.625 19.375 29.625 26.875 33.125 29.75C34.5 31 35.375 32.75 35.375 34.625C35.375 37.375 34.125 40 32.125 41.75C29.5 43.75 26.375 44.875 23 45.125C21 45.5 19 46.25 17.25 47.375C15.25 49.25 13.875 51.875 13.375 54.625C12.125 62.375 12 63.125 12 63.125C12 63.5 11.375 63.875 10.75 63.875Z" fill="#FDA5BD"/>
<path d="M67.125 66.375C66.625 66.375 66.125 66 66 65.5C66 65.5 64.25 60.625 62.125 53C61.5 50.125 60 47.5 57.875 45.5C56.625 44.625 55.25 44.125 53.75 44C50.5 43.75 47.25 42.625 44.625 40.625C42.625 39 41.5 36.5 41.5 34C41.5 32.125 42.25 30.375 43.75 29.25C46.625 27 47.25 20.625 47.25 18.375C47.25 17.625 47.75 17.125 48.5 17.125C49.25 17.125 49.75 17.625 49.75 18.375C49.75 18.75 49.625 27.625 45.25 31.25C44.375 32 43.875 33 44 34.125C44 36 44.875 37.625 46.25 38.875C48.5 40.5 51.25 41.5 54 41.625C55.875 41.75 57.75 42.5 59.375 43.625C61.875 46 63.625 49 64.5 52.375C66.5 59.875 68.25 64.625 68.25 64.625C68.5 65.25 68.125 66 67.5 66.25C67.375 66.375 67.25 66.375 67.125 66.375Z" fill="#FDA5BD"/>
<path d="M20.375 72.5C19.625 72.5 19.125 72 19.125 71.25L19.625 61C19.625 60.25 20.25 59.75 20.875 59.75C21.5 59.75 22.125 60.375 22.125 61L21.625 71.25C21.5 72 21 72.5 20.375 72.5Z" fill="#FDA5BD"/>
<path d="M56.5 74C55.875 74 55.375 73.5 55.25 72.875L53.75 60.875C53.625 60.125 54.125 59.5 54.875 59.5C55.625 59.375 56.25 59.875 56.25 60.625L57.75 72.625C57.875 73.25 57.375 73.875 56.5 74Z" fill="#FDA5BD"/>
<path d="M34.625 77.375L34.5 67V60.5C34.5 60.25 34.5 60.125 34.625 59.875L37.25 54.625L30.375 41.625C30 41 30.25 40.25 30.875 39.875C31.5 39.5 32.25 39.75 32.625 40.375L39.625 54C39.875 54.375 40.125 53.875 39.125 56.125L36.875 61V67.25L37 77.5C37.125 78.125 34.625 78.125 34.625 77.375Z" fill="#FDA5BD"/>
<path d="M35.375 68C35.125 68 34.5 65.75 35 65.25L45.125 53.75L43.5 48.625C43.25 48 43.625 47.25 44.25 47H44.375L47.625 46.375L47.25 42.5L45.875 41.75L37.75 59C37.375 59.625 38.375 55.875 37.875 55.5C37.25 55.25 37 54.5 37.25 53.875L44.25 39.375C44.375 39 44.625 38.875 45 38.75C45.375 38.625 45.75 38.75 46 38.875L49 40.625C49.375 40.875 49.625 41.125 49.625 41.625L50.125 47.25C50.25 47.875 49.75 48.5 49.125 48.625L46.25 49.125L47.75 53.625C47.875 54 47.75 54.5 47.5 54.875L36.25 67.625C36.125 67.75 35.75 68 35.375 68Z" fill="#FDA5BD"/>
<path d="M35.375 61.5C35 61.5 34.625 61.25 34.375 61L27.75 51.5C27.5 51.125 27.5 50.5 27.75 50L29.125 48H27.25C26.875 48 26.625 47.875 26.375 47.625C26.125 47.375 26 47 26 46.625L26.25 43C26.25 42.25 26.75 41.625 27.5 41.75C28.25 41.875 28.875 42.125 28.75 42.875L28.625 45.625H31.625C32.125 45.625 32.5 45.875 32.75 46.25C33 46.625 32.875 47.125 32.625 47.5L30.375 50.75L36.5 59.625C36.875 60.25 36.75 61 36.125 61.375C35.875 61.25 35.625 61.375 35.375 61.5Z" fill="#FDA5BD"/>
<path d="M47.25 68.875C46.5 68.875 46 68.375 46 67.625V62.5C46 61.75 46.5 61.25 47.25 61.25C48 61.25 48.5 61.75 48.5 62.5V67.625C48.5 68.375 48 68.875 47.25 68.875Z" fill="#FDA5BD"/>
<path d="M49.875 66.125H44.625C43.875 66.125 43.375 65.625 43.375 64.875C43.375 64.125 43.875 63.625 44.625 63.625H49.875C50.625 63.625 51.125 64.125 51.125 64.875C51.125 65.625 50.625 66.125 49.875 66.125Z" fill="#FDA5BD"/>
</svg>
