<svg width="81" height="80" viewBox="0 0 81 80" fill="none" xmlns="http://www.w3.org/2000/svg">
<path fill-rule="evenodd" clip-rule="evenodd" d="M12.125 34.3749L15 50.7499C15.125 51.8749 15.75 52.9999 16.625 53.7499C18.75 55.3749 27 61.1249 27 64.3749V68.4999H38.625L38.5 52.9999C38.5 51.8749 38.375 51.2499 35.75 50.1249L24.375 44.9999C21.5 43.7499 19.5 47.9999 22.375 49.2499L32.125 53.6249C32.375 53.7499 32.5 53.9999 32.5 54.2499C32.375 54.4999 32.125 54.6249 31.875 54.6249H31.75L20.875 49.8749C19.625 49.3749 19.75 48.9999 19.375 47.8749L16.375 34.2499C15.5 30.7499 11.625 31.4999 12.125 34.3749ZM68.875 34.3749L65.875 50.7499C65.875 51.9999 65.25 53.1249 64.25 53.7499C62.125 55.3749 54 61.1249 54 64.3749V68.4999H42.375V53.1249C42.375 51.9999 42.5 51.3749 45.125 50.2499L56.75 44.9999C59.625 43.7499 61.375 47.9999 58.5 49.2499L48.75 53.6249C48.5 53.7499 48.375 53.9999 48.375 54.2499C48.5 54.4999 48.75 54.6249 49 54.6249H49.125L60 49.8749C61.25 49.3749 61.25 48.9999 61.5 47.8749L64.75 34.2499C65.375 30.7499 69.25 31.4999 68.875 34.3749Z" stroke="#FDA5BD" stroke-width="1.5" stroke-miterlimit="10"/>
<path d="M58.875 24.625L57.625 27.25C57.25 27.75 56.875 28.25 56.5 28.75L41.625 43.375C41 44 39.875 44 39.25 43.375L24.75 28.875C24.25 28.375 23.875 27.875 23.375 27.25L22.125 24.625C21 21.125 21.875 17.25 24.375 14.625C26.25 12.625 28.875 11.5 31.625 11.5C34.25 11.5 36.875 12.5 38.75 14.375L40.5 16L42.125 14.375C46.125 10.5 52.5 10.5 56.375 14.375C59 17.125 60 21 58.875 24.625Z" stroke="#FDA5BD" stroke-width="1.5" stroke-miterlimit="10"/>
<path d="M40.625 78.375C34.25 78.375 28 76.75 22.375 73.75L20.125 72.5C2.25003 61.25 -3.24997 37.625 8.00003 19.625C19.25 1.62495 42.875 -3.75005 60.875 7.49995C78.875 18.75 84.25 42.375 73 60.375C66 71.4999 53.75 78.25 40.625 78.375ZM40.625 4.12495C20.875 4.12495 4.87503 20.125 4.75003 40C4.75003 52.25 11 63.75 21.375 70.25L23.5 71.5C40.875 80.875 62.625 74.4999 72.125 57C81.5 39.625 75.125 17.875 57.625 8.37495C52.5 5.62495 46.625 4.12495 40.625 4.12495Z" fill="#FDA5BD"/>
</svg>
