<svg width="81" height="80" viewBox="0 0 81 80" fill="none" xmlns="http://www.w3.org/2000/svg">
<path d="M65.875 61.75H15.25C13.25 61.75 11.625 60.125 11.625 58.125C11.625 56.125 13.25 54.5 15.25 54.5H65.875C67.875 54.625 69.375 56.375 69.375 58.375C69.25 60.25 67.75 61.625 65.875 61.75ZM15.25 56.5C14.375 56.5 13.625 57.25 13.625 58.125C13.625 59 14.25 59.75 15.125 59.75H65.75C66.625 59.625 67.375 58.875 67.25 58C67.125 57.25 66.5 56.5 65.75 56.5H15.25Z" fill="#FDA5BD"/>
<path d="M62.75 56.5H18.375C16.375 56.5 14.75 54.875 14.75 52.875V33C14.75 31 16.375 29.375 18.375 29.375H62.75C64.75 29.375 66.375 31 66.375 33V52.875C66.375 54.875 64.75 56.5 62.75 56.5ZM18.375 31.375C17.5 31.375 16.75 32.125 16.75 33V52.875C16.75 53.75 17.5 54.5 18.375 54.5H62.75C63.625 54.5 64.375 53.75 64.375 52.875V33C64.375 32.125 63.625 31.375 62.75 31.375H18.375Z" fill="#FDA5BD"/>
<path d="M24.625 50.875H19C18.625 50.875 18.25 50.5 18.25 50.125V45C18.25 44.625 18.625 44.25 19 44.25H24.625C25 44.25 25.375 44.625 25.375 45V50.125C25.375 50.625 25 50.875 24.625 50.875ZM19.75 49.375H23.875V45.75H19.75V49.375Z" fill="#FDA5BD"/>
<path d="M24.625 41.625H19C18.625 41.625 18.25 41.25 18.25 40.875V35.75C18.25 35.375 18.625 35 19 35H24.625C25 35 25.375 35.375 25.375 35.75V40.875C25.375 41.375 25 41.625 24.625 41.625ZM19.75 40.125H23.875V36.5H19.75V40.125Z" fill="#FDA5BD"/>
<path d="M33.25 50.875H27.625C27.25 50.875 26.875 50.5 26.875 50.125V45C26.875 44.625 27.25 44.25 27.625 44.25H33.25C33.625 44.25 34 44.625 34 45V50.125C34 50.625 33.625 50.875 33.25 50.875ZM28.5 49.375H32.625V45.75H28.5V49.375Z" fill="#FDA5BD"/>
<path d="M33.25 41.625H27.625C27.25 41.625 26.875 41.25 26.875 40.875V35.75C26.875 35.375 27.25 35 27.625 35H33.25C33.625 35 34 35.375 34 35.75V40.875C34 41.375 33.625 41.625 33.25 41.625ZM28.5 40.125H32.625V36.5H28.5V40.125Z" fill="#FDA5BD"/>
<path d="M53.5 50.625H47.875C47.5 50.625 47.125 50.25 47.125 49.875V44.75C47.125 44.375 47.5 44 47.875 44H53.5C53.875 44 54.25 44.375 54.25 44.75V49.875C54.25 50.25 53.875 50.625 53.5 50.625ZM48.625 49.125H52.75V45.5H48.625V49.125Z" fill="#FDA5BD"/>
<path d="M53.5 41.375H47.875C47.5 41.375 47.125 41 47.125 40.625V35.5C47.125 35.125 47.5 34.75 47.875 34.75H53.5C53.875 34.75 54.25 35.125 54.25 35.5V40.625C54.25 41 53.875 41.375 53.5 41.375ZM48.625 39.875H52.75V36.25H48.625V39.875Z" fill="#FDA5BD"/>
<path d="M62.125 50.625H56.625C56.25 50.625 55.875 50.25 55.875 49.875V44.75C55.875 44.375 56.25 44 56.625 44H62.125C62.5 44 62.875 44.375 62.875 44.75V49.875C62.875 50.25 62.5 50.625 62.125 50.625ZM57.25 49.125H61.25V45.5H57.25V49.125Z" fill="#FDA5BD"/>
<path d="M62.125 41.375H56.625C56.25 41.375 55.875 41 55.875 40.625V35.5C55.875 35.125 56.25 34.75 56.625 34.75H62.125C62.5 34.75 62.875 35.125 62.875 35.5V40.625C62.875 41 62.5 41.375 62.125 41.375ZM57.25 39.875H61.25V36.25H57.25V39.875Z" fill="#FDA5BD"/>
<path d="M44.75 56.5H36.375C35.875 56.5 35.375 56 35.375 55.5V44.25C35.375 42.75 36.625 41.625 38 41.625H43C44.5 41.625 45.625 42.875 45.625 44.25V55.5C45.75 56 45.375 56.5 44.75 56.5ZM37.375 54.5H43.75V44.25C43.75 43.875 43.5 43.625 43.125 43.625H38.125C37.75 43.625 37.5 43.875 37.5 44.25L37.375 54.5Z" fill="#FDA5BD"/>
<path d="M56.625 31.375H24.125C23.625 31.375 23.125 31 23.125 30.5C23 29.875 23 29.125 23 28.375C23.25 18.75 31.25 11.25 40.75 11.5C50 11.75 57.5 19.125 57.75 28.5C57.75 29.25 57.75 29.875 57.625 30.625C57.625 31 57.125 31.375 56.625 31.375ZM25 29.375H55.625C55.625 29 55.625 28.75 55.625 28.375C55.375 19.875 48.375 13.125 39.875 13.375C31.75 13.625 25.125 20.125 24.875 28.375C25 28.75 25 29.125 25 29.375Z" fill="#FDA5BD"/>
<path d="M40.375 27.375C39.25 27.375 38.375 26.5 38.375 25.375V17.875C38.375 16.75 39.25 15.875 40.375 15.875C41.5 15.875 42.375 16.75 42.375 17.875V25.375C42.375 26.5 41.5 27.375 40.375 27.375Z" fill="#FDA5BD"/>
<path d="M44.375 23.375H36.375C35.25 23.375 34.375 22.5 34.375 21.375C34.375 20.25 35.25 19.375 36.375 19.375H44.375C45.5 19.375 46.375 20.25 46.375 21.375C46.5 22.5 45.5 23.375 44.375 23.375Z" fill="#FDA5BD"/>
<path d="M40.375 79.125C34 79.125 27.75 77.625 22.125 74.5L19.875 73.25C1.87495 62 -3.50005 38.375 7.74995 20.375C19 2.37495 42.625 -3.00005 60.5 8.24995C78.375 19.5 83.875 43.125 72.625 61.125C65.75 72.25 53.5 79 40.375 79.125ZM40.375 4.87495C20.625 4.87495 4.49995 20.875 4.49995 40.75C4.49995 53 10.75 64.5 21.125 71L23.25 72.25C40.625 81.625 62.375 75.25 71.875 57.75C81.25 40.375 74.875 18.625 57.375 9.12495C52.25 6.37495 46.375 4.87495 40.375 4.87495Z" fill="#FDA5BD"/>
</svg>
