<svg width="81" height="80" viewBox="0 0 81 80" fill="none" xmlns="http://www.w3.org/2000/svg">
<path d="M40.5 78.0875C34.1703 78.0944 27.9394 76.5173 22.375 73.5L20.1625 72.25C12.416 67.3755 6.689 59.8688 4.03425 51.1097C1.37951 42.3505 1.97537 32.9275 5.71231 24.5726C9.44925 16.2176 16.0762 9.49209 24.3751 5.63219C32.6739 1.7723 42.0871 1.03737 50.8845 3.5625C59.6819 6.08762 67.2723 11.7031 72.2607 19.3769C77.2491 27.0506 79.3002 36.267 78.037 45.332C76.7739 54.397 72.2814 62.7016 65.3852 68.7193C58.489 74.7371 49.6526 78.0636 40.5 78.0875ZM40.5 4.60004C32.8083 4.5899 25.3217 7.07994 19.1683 11.6949C13.0149 16.3099 8.52819 22.7999 6.3842 30.1867C4.24022 37.5736 4.55516 45.4572 7.28156 52.6495C10.008 59.8418 14.9981 65.9531 21.5 70.0625L23.6375 71.3125C28.3914 73.8884 33.6708 75.3443 39.0729 75.5693C44.4751 75.7942 49.8573 74.7822 54.8088 72.6105C59.7603 70.4388 64.1504 67.1647 67.644 63.0382C71.1376 58.9116 73.6424 54.0415 74.9674 48.7995C76.2924 43.5575 76.4025 38.0822 75.2893 32.7911C74.1762 27.5001 71.8691 22.5333 68.5442 18.2696C65.2193 14.0059 60.9645 10.558 56.1042 8.189C51.244 5.81999 45.9069 4.59245 40.5 4.60004Z" fill="#FDA5BD"/>
<path d="M43.4875 67.2001C41.2229 67.2001 39.0091 66.5285 37.1262 65.2704C35.2433 64.0122 33.7757 62.224 32.9091 60.1318C32.0424 58.0396 31.8157 55.7374 32.2575 53.5163C32.6993 51.2952 33.7898 49.255 35.3911 47.6537C36.9924 46.0524 39.0326 44.9619 41.2537 44.5201C43.4748 44.0783 45.777 44.305 47.8692 45.1716C49.9614 46.0383 51.7497 47.5058 53.0078 49.3888C54.2659 51.2717 54.9375 53.4855 54.9375 55.7501C54.9375 58.7868 53.7311 61.6991 51.5839 63.8464C49.4366 65.9937 46.5242 67.2001 43.4875 67.2001ZM43.4875 46.8001C41.7173 46.8001 39.9869 47.325 38.5151 48.3084C37.0433 49.2918 35.8962 50.6896 35.2188 52.325C34.5414 53.9604 34.3641 55.76 34.7095 57.4961C35.0548 59.2322 35.9072 60.827 37.1589 62.0787C38.4106 63.3303 40.0053 64.1827 41.7414 64.5281C43.4776 64.8734 45.2771 64.6962 46.9125 64.0188C48.5479 63.3414 49.9457 62.1942 50.9291 60.7224C51.9126 59.2506 52.4375 57.5202 52.4375 55.7501C52.4375 53.3764 51.4945 51.0999 49.8161 49.4215C48.1376 47.743 45.8612 46.8001 43.4875 46.8001Z" fill="#FDA5BD"/>
<path d="M37.0375 62.975L23.7125 72.4125C22.975 72 22.2375 71.575 21.5375 71.1625L35.5 60.9L37.0375 62.975Z" fill="#FDA5BD"/>
<path d="M35.5 60.9L21.5375 71.125C22.2375 71.575 22.975 72 23.7125 72.375L37.0375 62.9375L35.5 60.9Z" fill="#FDA5BD"/>
<path d="M38 64.3125L24.7 73.75C23.9625 73.35 23.225 72.925 22.525 72.5L36.425 62.2875L38 64.3125Z" fill="#FDA5BD"/>
<path d="M36.425 62.2375L22.525 72.5C23.225 72.9625 23.9625 73.3875 24.7 73.75L38 64.3125L36.4 62.2375H36.425Z" fill="#FDA5BD"/>
<path d="M20.8 72.375C20.5528 72.375 20.3111 72.3017 20.1055 72.1643C19.9 72.027 19.7397 71.8318 19.6451 71.6034C19.5505 71.3749 19.5258 71.1236 19.574 70.8811C19.6222 70.6387 19.7413 70.4159 19.9161 70.2411C20.0909 70.0663 20.3137 69.9473 20.5561 69.899C20.7986 69.8508 21.0499 69.8755 21.2783 69.9701C21.5067 70.0648 21.702 70.225 21.8393 70.4305C21.9767 70.6361 22.05 70.8778 22.05 71.125C22.05 71.2902 22.0173 71.4538 21.9537 71.6063C21.8901 71.7587 21.7969 71.8971 21.6795 72.0133C21.5621 72.1296 21.4228 72.2214 21.2697 72.2835C21.1166 72.3455 20.9527 72.3767 20.7875 72.375H20.8Z" fill="#FDA5BD"/>
<path d="M51.9125 42.9625C51.5956 42.9632 51.2902 42.8436 51.0582 42.6278C50.8261 42.412 50.6847 42.1161 50.6625 41.7999L49.25 19.925C49.25 19.625 48.3625 11.6625 41.5 11.6625C37.6875 11.6625 34.7875 12.65 32.925 14.6C30.55 17.1 30.175 20.625 30.275 23.175C30.275 23.5065 30.1433 23.8244 29.9089 24.0588C29.6745 24.2933 29.3565 24.425 29.025 24.425C28.6935 24.425 28.3755 24.2933 28.1411 24.0588C27.9067 23.8244 27.775 23.5065 27.775 23.175C27.65 20.15 28.1375 15.875 31.1125 12.7625C33.475 10.2625 36.975 9.01245 41.5 9.01245C48.8125 9.01245 51.3875 15.9375 51.725 19.5875L53.1125 41.4874C53.1331 41.8171 53.0224 42.1415 52.8046 42.3897C52.5867 42.638 52.2795 42.79 51.95 42.8125L51.9125 42.9625Z" fill="#FDA5BD"/>
<path d="M29.025 43.65C28.6935 43.65 28.3756 43.5183 28.1411 43.2839C27.9067 43.0494 27.775 42.7315 27.775 42.4V23.9125C27.775 23.581 27.9067 23.263 28.1411 23.0286C28.3756 22.7942 28.6935 22.6625 29.025 22.6625C29.3565 22.6625 29.6745 22.7942 29.9089 23.0286C30.1433 23.263 30.275 23.581 30.275 23.9125V42.4C30.275 42.7315 30.1433 43.0494 29.9089 43.2839C29.6745 43.5183 29.3565 43.65 29.025 43.65Z" fill="#FDA5BD"/>
<path d="M50.7625 25.6C50.596 25.6015 50.4306 25.5718 50.275 25.5125C47.5533 24.1753 45.2812 22.0726 43.7375 19.4625C38.4 25.875 29.3375 25.2 28.925 25.1625C28.7608 25.1486 28.601 25.1024 28.4547 25.0267C28.3084 24.951 28.1784 24.8472 28.0722 24.7213C27.966 24.5953 27.8857 24.4497 27.8357 24.2927C27.7858 24.1357 27.7673 23.9704 27.7812 23.8063C27.7952 23.6421 27.8413 23.4823 27.9171 23.336C27.9928 23.1897 28.0965 23.0597 28.2225 22.9535C28.3484 22.8473 28.4941 22.7669 28.651 22.717C28.808 22.6671 28.9733 22.6486 29.1375 22.6625C29.225 22.6625 38.5625 23.3375 42.8 16.4875C42.919 16.2961 43.0876 16.1405 43.2878 16.0371C43.4881 15.9337 43.7125 15.8863 43.9375 15.9C44.1602 15.9143 44.375 15.9878 44.5596 16.1131C44.7443 16.2384 44.892 16.4109 44.9875 16.6125C44.9875 16.6125 47.4125 21.6125 51.2375 23.1875C51.5014 23.2999 51.7187 23.4997 51.8528 23.7533C51.9869 24.0069 52.0297 24.2989 51.974 24.5803C51.9183 24.8617 51.7675 25.1154 51.5469 25.2988C51.3263 25.4822 51.0493 25.5841 50.7625 25.5875V25.6Z" fill="#FDA5BD"/>
<path d="M20.6 71.125C20.6 71.125 20.6 56.5625 20.6 50.2625C20.4965 48.2312 21.1918 46.24 22.5373 44.7146C23.8828 43.1892 25.7716 42.2508 27.8 42.1C30.0525 41.9878 32.2239 41.2235 34.05 39.9C34.642 39.3737 35.1169 38.7291 35.4442 38.0078C35.7715 37.2865 35.9438 36.5046 35.95 35.7125C35.9705 35.2563 35.8878 34.8014 35.7082 34.3815C35.5286 33.9617 35.2566 33.5877 34.9125 33.2875C31.525 30.5375 30.675 23.9375 30.6375 23.6625C30.6219 23.5402 30.6306 23.4161 30.663 23.2971C30.6953 23.1782 30.7509 23.0668 30.8263 22.9693C30.9787 22.7723 31.203 22.644 31.45 22.6125C31.697 22.581 31.9464 22.6489 32.1433 22.8013C32.2408 22.8768 32.3225 22.9707 32.3837 23.0777C32.4449 23.1847 32.4844 23.3027 32.5 23.425C32.5 23.4875 33.3 29.5625 36.1 31.825C36.6581 32.3016 37.1026 32.8969 37.401 33.5673C37.6995 34.2377 37.8444 34.9664 37.825 35.7C37.8223 36.7689 37.5912 37.8249 37.1471 38.7972C36.703 39.7695 36.0562 40.6356 35.25 41.3375C33.142 42.9026 30.6214 43.8153 28 43.9625C26.8201 44.0629 25.6931 44.4964 24.75 45.2125C24.0048 45.8254 23.4116 46.6026 23.0169 47.483C22.6222 48.3635 22.4367 49.3234 22.475 50.2875C22.475 56.5375 22.475 71.15 22.475 71.15L20.6 71.125Z" fill="#FDA5BD"/>
<path d="M59.95 71.8251H58.075C58.075 71.8251 58.075 55.925 58.075 49.625C58.1258 48.8512 58.0229 48.075 57.7722 47.3411C57.5215 46.6072 57.1279 45.9303 56.6143 45.3493C56.1007 44.7682 55.4771 44.2946 54.7795 43.9558C54.082 43.617 53.3242 43.4196 52.55 43.375C49.9416 43.2206 47.435 42.3083 45.3375 40.75C44.567 40.1014 43.945 39.2947 43.5137 38.3845C43.0823 37.4744 42.8517 36.4821 42.8375 35.475C42.8343 34.7583 42.9909 34.0499 43.2957 33.4012C43.6006 32.7526 44.0462 32.18 44.6 31.725C46.8875 29.875 47.425 24.7875 47.4375 22.975C47.4408 22.7286 47.541 22.4933 47.7165 22.3202C47.8919 22.1471 48.1285 22.05 48.375 22.05C48.4986 22.05 48.621 22.0747 48.7349 22.1228C48.8488 22.1708 48.9519 22.2412 49.0381 22.3298C49.1243 22.4183 49.1919 22.5233 49.2369 22.6384C49.2819 22.7535 49.3034 22.8765 49.3 23C49.3 23.3 49.2 30.4 45.7625 33.1875C45.4193 33.4707 45.1452 33.8284 44.9611 34.2335C44.7769 34.6385 44.6877 35.0803 44.7 35.525C44.7267 36.2439 44.904 36.9492 45.2206 37.5952C45.5371 38.2412 45.9858 38.8135 46.5375 39.275C48.3595 40.6082 50.5326 41.3774 52.7875 41.4875C54.3187 41.6035 55.7827 42.164 57 43.1C57.9729 43.8844 58.7495 44.8848 59.2681 46.0219C59.7867 47.1589 60.033 48.4012 59.9875 49.6501C59.9625 55.9251 59.95 71.8251 59.95 71.8251Z" fill="#FDA5BD"/>
<path d="M45.5875 62.2C44.2614 62.2 42.9897 61.6732 42.052 60.7355C41.1143 59.7978 40.5875 58.526 40.5875 57.2C40.5907 57.0352 40.6576 56.8781 40.7741 56.7616C40.8906 56.645 41.0478 56.5782 41.2125 56.575C41.3783 56.575 41.5373 56.6408 41.6545 56.758C41.7717 56.8752 41.8375 57.0342 41.8375 57.2C41.8375 58.2045 42.2366 59.1678 42.9469 59.8781C43.6572 60.5884 44.6205 60.9875 45.625 60.9875C46.6295 60.9875 47.5929 60.5884 48.3032 59.8781C49.0135 59.1678 49.4125 58.2045 49.4125 57.2C49.4125 57.0342 49.4784 56.8752 49.5956 56.758C49.7128 56.6408 49.8718 56.575 50.0375 56.575C50.2033 56.575 50.3623 56.6408 50.4795 56.758C50.5967 56.8752 50.6625 57.0342 50.6625 57.2C50.6626 57.8629 50.5308 58.5193 50.2749 59.1309C50.0189 59.7424 49.6439 60.297 49.1716 60.7623C48.6994 61.2276 48.1393 61.5943 47.524 61.8411C46.9087 62.0879 46.2504 62.2099 45.5875 62.2Z" fill="#FDA5BD"/>
<path d="M34.125 62.2C32.7989 62.2 31.5271 61.6732 30.5895 60.7355C29.6518 59.7978 29.125 58.526 29.125 57.2C29.125 57.0342 29.1908 56.8752 29.3081 56.758C29.4253 56.6408 29.5842 56.575 29.75 56.575C29.9158 56.575 30.0747 56.6408 30.1919 56.758C30.3092 56.8752 30.375 57.0342 30.375 57.2C30.375 58.2045 30.774 59.1678 31.4843 59.8781C32.1946 60.5884 33.158 60.9875 34.1625 60.9875C35.167 60.9875 36.1304 60.5884 36.8407 59.8781C37.551 59.1678 37.95 58.2045 37.95 57.2C37.95 57.0342 38.0158 56.8752 38.1331 56.758C38.2503 56.6408 38.4092 56.575 38.575 56.575C38.7398 56.5782 38.8969 56.645 39.0134 56.7616C39.1299 56.8781 39.1968 57.0352 39.2 57.2C39.2001 57.8629 39.0683 58.5193 38.8124 59.1309C38.5564 59.7424 38.1814 60.297 37.7091 60.7623C37.2369 61.2276 36.6768 61.5943 36.0615 61.8411C35.4461 62.0879 34.7879 62.2099 34.125 62.2Z" fill="#FDA5BD"/>
<path d="M53.1375 75.1C52.8899 75.0968 52.6533 74.997 52.4782 74.8219C52.3031 74.6467 52.2032 74.4102 52.2 74.1625V57.025C52.2 56.7764 52.2988 56.5379 52.4746 56.3621C52.6504 56.1863 52.8889 56.0875 53.1375 56.0875C53.3862 56.0875 53.6246 56.1863 53.8004 56.3621C53.9762 56.5379 54.075 56.7764 54.075 57.025V74.1625C54.075 74.4112 53.9762 74.6496 53.8004 74.8254C53.6246 75.0013 53.3862 75.1 53.1375 75.1Z" fill="#FDA5BD"/>
<path d="M27.1625 75.5375C27.0389 75.5392 26.9163 75.5161 26.8018 75.4696C26.6873 75.4231 26.5832 75.3541 26.4958 75.2667C26.4084 75.1793 26.3395 75.0753 26.2929 74.9608C26.2464 74.8463 26.2233 74.7236 26.225 74.6V55.4875C26.225 55.2389 26.3238 55.0005 26.4996 54.8246C26.6754 54.6488 26.9139 54.55 27.1625 54.55C27.4111 54.55 27.6496 54.6488 27.8254 54.8246C28.0012 55.0005 28.1 55.2389 28.1 55.4875V74.6C28.1 74.8487 28.0012 75.0871 27.8254 75.263C27.6496 75.4388 27.4111 75.5375 27.1625 75.5375Z" fill="#FDA5BD"/>
</svg>
